<?xml version="1.0" encoding="UTF-8" standalone="no"?>
<!-- Created with Inkscape (http://www.inkscape.org/) -->

<svg
   version="1.1"
   id="svg1"
   width="749.55902"
   height="749.55902"
   viewBox="0 0 749.55902 749.55902"
   xml:space="preserve"
   xmlns:xlink="http://www.w3.org/1999/xlink"
   xmlns="http://www.w3.org/2000/svg"
   xmlns:svg="http://www.w3.org/2000/svg"><defs
     id="defs1"><linearGradient
       id="linearGradient72"><stop
         style="stop-color:#fc8a14;stop-opacity:1;"
         offset="0"
         id="stop73" /><stop
         style="stop-color:#fcda0e;stop-opacity:1;"
         offset="1"
         id="stop74" /></linearGradient><linearGradient
       id="linearGradient57"><stop
         style="stop-color:#35fbfd;stop-opacity:1;"
         offset="0"
         id="stop56" /><stop
         style="stop-color:#0b49b4;stop-opacity:1;"
         offset="1"
         id="stop57" /></linearGradient><linearGradient
       id="linearGradient40"><stop
         style="stop-color:#35fbfd;stop-opacity:1;"
         offset="0"
         id="stop39" /><stop
         style="stop-color:#01c4fd;stop-opacity:1;"
         offset="1"
         id="stop40" /></linearGradient><linearGradient
       id="linearGradient38"><stop
         style="stop-color:#1ef1ff;stop-opacity:1;"
         offset="0"
         id="stop37" /><stop
         style="stop-color:#03a1fe;stop-opacity:1;"
         offset="1"
         id="stop38" /></linearGradient><linearGradient
       id="linearGradient1"><stop
         style="stop-color:#100a5d;stop-opacity:1;"
         offset="0"
         id="stop1" /><stop
         style="stop-color:#53007a;stop-opacity:1;"
         offset="1"
         id="stop2" /></linearGradient><linearGradient
       xlink:href="#linearGradient1"
       id="linearGradient2"
       x1="515.79645"
       y1="137.76274"
       x2="515.79645"
       y2="881.35577"
       gradientUnits="userSpaceOnUse" /><linearGradient
       xlink:href="#linearGradient38"
       id="linearGradient33"
       gradientUnits="userSpaceOnUse"
       x1="591.63379"
       y1="257.68054"
       x2="591.12012"
       y2="415.43695" /><linearGradient
       xlink:href="#linearGradient40"
       id="linearGradient35"
       gradientUnits="userSpaceOnUse"
       x1="593.57532"
       y1="184.97507"
       x2="593.03046"
       y2="631.76923" /><linearGradient
       xlink:href="#linearGradient38"
       id="linearGradient37"
       gradientUnits="userSpaceOnUse"
       x1="592.21185"
       y1="256.14792"
       x2="591.6391"
       y2="418.56296" /><linearGradient
       xlink:href="#linearGradient40"
       id="linearGradient45"
       gradientUnits="userSpaceOnUse"
       x1="594.06226"
       y1="189.81342"
       x2="593.03046"
       y2="631.76923"
       gradientTransform="matrix(-0.79093694,0.61189767,0.61189767,0.79093694,654.51626,-276.81774)" /><linearGradient
       xlink:href="#linearGradient57"
       id="linearGradient55"
       gradientUnits="userSpaceOnUse"
       gradientTransform="matrix(-0.79093694,0.61189767,0.61189767,0.79093694,654.51626,-276.81774)"
       x1="594.06226"
       y1="189.81342"
       x2="593.03046"
       y2="631.76923" /><filter
       style="color-interpolation-filters:sRGB"
       id="filter57"
       x="-0.20410739"
       y="-0.25014749"
       width="1.4082148"
       height="1.500295"><feGaussianBlur
         stdDeviation="37.723343"
         id="feGaussianBlur57" /></filter><radialGradient
       xlink:href="#linearGradient72"
       id="radialGradient74"
       cx="512.06494"
       cy="535.31805"
       fx="512.06494"
       fy="535.31805"
       r="293.98941"
       gradientTransform="matrix(1,0,0,0.40586683,0,318.0502)"
       gradientUnits="userSpaceOnUse" /><filter
       style="color-interpolation-filters:sRGB"
       id="filter78"
       x="-0.029190387"
       y="-0.073776479"
       width="1.0583808"
       height="1.147553"><feGaussianBlur
         stdDeviation="7.1513897"
         id="feGaussianBlur78" /></filter><filter
       style="color-interpolation-filters:sRGB"
       id="filter80"
       x="-0.048416101"
       y="-0.12236801"
       width="1.0968322"
       height="1.244736"><feGaussianBlur
         stdDeviation="11.861522"
         id="feGaussianBlur80" /></filter><radialGradient
       xlink:href="#linearGradient72"
       id="radialGradient80"
       gradientUnits="userSpaceOnUse"
       gradientTransform="matrix(1,0,0,0.40586683,0,318.0502)"
       cx="512.06494"
       cy="535.31805"
       fx="512.06494"
       fy="535.31805"
       r="293.98941" /><radialGradient
       xlink:href="#linearGradient72"
       id="radialGradient81"
       gradientUnits="userSpaceOnUse"
       gradientTransform="matrix(1,0,0,0.40586683,0,318.0502)"
       cx="512.06494"
       cy="535.31805"
       fx="512.06494"
       fy="535.31805"
       r="293.98941" /><filter
       style="color-interpolation-filters:sRGB"
       id="filter81"
       x="-0.12592805"
       y="-0.31691009"
       width="1.2518561"
       height="1.6338202"><feGaussianBlur
         stdDeviation="30.199231"
         id="feGaussianBlur81" /></filter><linearGradient
       xlink:href="#linearGradient72"
       id="linearGradient82"
       x1="516.15289"
       y1="420.94003"
       x2="516.15289"
       y2="655.69574"
       gradientUnits="userSpaceOnUse" /></defs><g
     id="g1"
     transform="translate(-138.84744,-135.59322)"><rect
       style="opacity:1;fill:url(#linearGradient2);stroke-width:16.2794;stroke-linecap:round;stroke-linejoin:round"
       id="rect1"
       width="749.55902"
       height="749.55902"
       x="138.84744"
       y="135.59322"
       ry="173.66957" /><path
       id="path50"
       style="color:#000000;display:inline;opacity:0.594059;fill:url(#linearGradient55);stroke-linecap:round;-inkscape-stroke:none;filter:url(#filter57)"
       d="m 302.9375,228.80859 a 12.819,12.819 0 0 0 -6.12109,2.56446 12.819,12.819 0 0 0 -2.29493,17.98242 l 25.96485,33.56055 -18.35742,14.20117 c -5.52601,4.27508 -6.53291,12.16541 -2.25782,17.6914 l 106.0586,137.08985 c 4.27509,5.52598 12.16541,6.53294 17.6914,2.25781 l 18.35547,-14.20117 46.91016,60.63476 16.20508,-20.94922 -42.83789,-55.37304 19.92382,-15.41406 c 5.52604,-4.27514 6.5329,-12.16544 2.25782,-17.69141 L 378.37891,254.07227 c -4.27514,-5.52602 -12.16543,-6.53291 -17.69141,-2.25782 l -19.92578,15.41407 -25.96289,-33.5586 a 12.819,12.819 0 0 0 -11.86133,-4.86133 z m 421.37891,0 a 12.819,12.819 0 0 0 -11.86133,4.86133 l -25.96289,33.5586 -19.92578,-15.41407 c -5.52601,-4.27512 -13.41628,-3.2682 -17.69141,2.25782 L 542.81836,391.16211 c -4.27512,5.526 -3.26821,13.41627 2.25781,17.69141 L 565,424.26758 452.28711,569.96094 a 12.819,12.819 0 0 0 2.29492,17.98242 12.819,12.819 0 0 0 17.98242,-2.29492 l 112.71289,-145.69336 18.35547,14.20117 c 5.52602,4.27513 13.41628,3.26821 17.69141,-2.25781 L 727.38281,314.80859 c 4.27513,-5.52602 3.26819,-13.41629 -2.25781,-17.6914 l -18.35742,-14.20117 25.96484,-33.56055 a 12.819,12.819 0 0 0 -2.29492,-17.98242 12.819,12.819 0 0 0 -6.12109,-2.56446 z m -185.94922,293.84375 -16.20703,20.94922 32.52929,42.04688 a 12.819,12.819 0 0 0 17.98243,2.29492 12.819,12.819 0 0 0 2.29492,-17.98242 z" /><g
       id="g50"
       style="display:inline"><g
         id="g28"
         transform="matrix(-0.79093694,0.61189767,0.61189767,0.79093694,654.51626,-276.81774)"
         style="display:inline"><path
           id="path43"
           style="color:#000000;display:inline;fill:url(#linearGradient45);stroke-linecap:round;-inkscape-stroke:none"
           d="m 302.9375,228.80859 a 12.819,12.819 0 0 0 -6.12109,2.56446 12.819,12.819 0 0 0 -2.29493,17.98242 l 25.96485,33.56055 -18.35742,14.20117 c -5.52601,4.27509 -6.53292,12.1654 -2.25782,17.6914 l 106.0586,137.08985 c 4.2751,5.52599 12.1654,6.53294 17.6914,2.25781 l 18.35547,-14.20117 46.91016,60.63476 16.20508,-20.94922 -42.83789,-55.37304 19.92382,-15.41406 c 5.52604,-4.27514 6.53291,-12.16543 2.25782,-17.69141 L 378.37891,254.07227 c -4.27514,-5.52602 -12.16542,-6.53292 -17.69141,-2.25782 l -19.92578,15.41407 -25.96289,-33.5586 a 12.819,12.819 0 0 0 -11.86133,-4.86133 z m 235.42969,293.84375 -16.20703,20.94922 32.52929,42.04688 a 12.819,12.819 0 0 0 17.98243,2.29492 12.819,12.819 0 0 0 2.29492,-17.98242 z"
           transform="matrix(-0.79093694,0.61189767,0.61189767,0.79093694,687.06522,-181.5516)" /><rect
           style="opacity:1;fill:url(#linearGradient33);stroke:none;stroke-width:15.4647;stroke-linecap:round;stroke-linejoin:miter;stroke-dasharray:none;stroke-opacity:1;paint-order:fill markers stroke"
           id="rect28"
           width="64.440102"
           height="164.04001"
           x="560.66693"
           y="255.57578"
           ry="4.3011351" /></g><g
         id="g35"
         transform="rotate(37.726844,591.47178,407.066)"
         style="display:inline"><path
           style="display:none;opacity:1;fill:none;fill-opacity:1;stroke:#31056b;stroke-width:52.638;stroke-linecap:round;stroke-linejoin:miter;stroke-dasharray:none;stroke-opacity:1;paint-order:normal"
           d="M 593.87899,195.89028 V 621.07197"
           id="path34" /><path
           id="path35"
           style="color:#000000;display:inline;fill:url(#linearGradient35);stroke-linecap:round;-inkscape-stroke:none"
           d="m 587.46821,184.78832 a 12.819,12.819 0 0 0 -6.40693,11.10292 l -5.8e-4,42.42936 -25.19187,9.9e-4 c -6.98667,0 -12.61123,5.62444 -12.61123,12.61112 l 8.4e-4,173.32523 c 0,6.98666 5.62443,12.61124 12.61112,12.61124 l 25.19032,2e-4 6.4e-4,184.20302 a 12.819,12.819 0 0 0 12.81854,12.8187 12.819,12.819 0 0 0 12.8187,-12.81854 l -6.4e-4,-184.20301 23.20768,5.6e-4 c 6.98668,0 12.61124,-5.62444 12.61124,-12.61112 l 7e-4,-173.32642 c 0,-6.98668 -5.62445,-12.61124 -12.61111,-12.61124 l -23.20923,6.3e-4 9.3e-4,-42.4321 a 12.819,12.819 0 0 0 -12.81854,-12.81871 12.819,12.819 0 0 0 -6.41058,1.71717 z" /><rect
           style="opacity:1;fill:url(#linearGradient37);fill-opacity:1;stroke:none;stroke-width:15.4647;stroke-linecap:round;stroke-linejoin:miter;stroke-dasharray:none;stroke-opacity:1;paint-order:fill markers stroke"
           id="rect35"
           width="64.440102"
           height="164.04001"
           x="560.66693"
           y="255.57578"
           ry="4.3011351" /></g></g><g
       id="g78"><path
         style="display:inline;opacity:0.203677;fill:#ff910b;fill-opacity:1;filter:url(#filter81)"
         d="m 450.36392,794.45064 c -7.15,-0.70905 -13.3375,-1.32615 -13.75,-1.37133 -0.4125,-0.0452 -0.75251,-15.71966 -0.75557,-34.83216 -0.003,-19.65477 -0.43213,-36.28538 -0.98751,-38.28452 -2.64872,-9.53423 -10.95943,-17.72618 -20.94312,-20.64385 -4.61084,-1.34749 -6.66642,-1.43851 -12.00146,-0.53137 -8.21602,1.39699 -13.40428,5.02543 -17.45856,12.20974 l -3.10378,5.5 -0.30003,33.25 c -0.16502,18.2875 -0.52884,33.25 -0.8085,33.25 -2.22442,0 -27.80037,-7.08645 -40.09376,-11.10896 l -15.2023,-4.97434 -0.2977,-44.70835 -0.29771,-44.70835 -3.18498,-6.72333 c -3.99363,-8.43036 -10.97146,-15.97223 -17.92556,-19.37456 -4.63532,-2.26784 -6.35531,-2.57194 -12.72736,-2.25016 -9.14235,0.46167 -13.99893,3.42188 -18.27577,11.13958 l -2.88633,5.20847 -0.29711,35.75 c -0.16341,19.6625 -0.64578,35.75 -1.07193,35.75 -1.19751,0 -15.15176,-9.80085 -19.63096,-13.78792 -13.28407,-11.82456 -21.79003,-25.51306 -23.43408,-37.71208 -0.51887,-3.85 -0.89764,-32.40135 -0.84173,-63.44744 0.0935,-51.92467 0.22882,-56.25329 1.68874,-54.02423 20.63495,31.50641 71.51652,62.62717 129.08707,78.95371 34.9281,9.90533 64.51187,15.14617 108.5,19.22106 18.64781,1.72746 84.3757,1.71159 103,-0.0249 52.6057,-4.90476 99.192,-15.39182 137,-30.84012 26.18694,-10.69996 56.14234,-28.44597 73.42686,-43.49912 7.26671,-6.32862 17.79508,-18.12892 21.78981,-24.42224 0.96182,-1.51527 1.17128,10.96485 1,59.58325 l -0.21667,61.5 -2.31644,5.73554 c -5.31438,13.1585 -17.68248,27.3118 -32.45827,37.14327 -4.64647,3.09166 -8.71358,5.62119 -9.03802,5.62119 -0.32445,0 -0.62207,-15.39455 -0.66139,-34.21011 -0.047,-22.47289 -0.46185,-35.51299 -1.20924,-38.00757 -1.47983,-4.93921 -6.9983,-11.32418 -11.98708,-13.86927 -5.86458,-2.99189 -14.53558,-2.78084 -21.27797,0.51791 -6.89911,3.37542 -13.88393,10.93849 -17.86661,19.34571 l -3.18498,6.72333 -0.2977,44.70835 -0.29771,44.70835 -15.20229,4.97434 c -12.42917,4.06694 -37.87649,11.10896 -40.1438,11.10896 -0.30718,0 -0.5585,-14.09332 -0.5585,-31.3185 0,-36.53788 -0.42467,-39.1588 -7.48973,-46.22387 -10.59914,-10.59913 -29.16214,-9.31213 -40.02981,2.77533 -7.21094,8.0203 -7.48046,9.81831 -7.48046,49.90323 v 34.77318 l -3.25,0.53627 c -5.56052,0.91752 -25.9677,2.54736 -31.94025,2.55094 l -5.69025,0.003 -0.30975,-34.25 -0.30975,-34.25 -3.42984,-6.32601 c -6.36998,-11.74883 -15.59654,-17.46161 -29.08683,-18.00961 -13.73948,-0.55812 -23.24153,3.70721 -30.48224,13.68301 -5.98632,8.24757 -6.50109,12.00621 -6.50109,47.46821 v 31.6844 l -6.75,-0.12867 c -3.7125,-0.0708 -12.6,-0.7088 -19.75,-1.41784 z"
         id="path81" /><path
         style="display:inline;fill:#ff910b;fill-opacity:1"
         d="m 450.36392,794.45064 c -7.15,-0.70905 -13.3375,-1.32615 -13.75,-1.37133 -0.4125,-0.0452 -0.75251,-15.71966 -0.75557,-34.83216 -0.003,-19.65477 -0.43213,-36.28538 -0.98751,-38.28452 -2.64872,-9.53423 -10.95943,-17.72618 -20.94312,-20.64385 -4.61084,-1.34749 -6.66642,-1.43851 -12.00146,-0.53137 -8.21602,1.39699 -13.40428,5.02543 -17.45856,12.20974 l -3.10378,5.5 -0.30003,33.25 c -0.16502,18.2875 -0.52884,33.25 -0.8085,33.25 -2.22442,0 -27.80037,-7.08645 -40.09376,-11.10896 l -15.2023,-4.97434 -0.2977,-44.70835 -0.29771,-44.70835 -3.18498,-6.72333 c -3.99363,-8.43036 -10.97146,-15.97223 -17.92556,-19.37456 -4.63532,-2.26784 -6.35531,-2.57194 -12.72736,-2.25016 -9.14235,0.46167 -13.99893,3.42188 -18.27577,11.13958 l -2.88633,5.20847 -0.29711,35.75 c -0.16341,19.6625 -0.64578,35.75 -1.07193,35.75 -1.19751,0 -15.15176,-9.80085 -19.63096,-13.78792 -13.28407,-11.82456 -21.79003,-25.51306 -23.43408,-37.71208 -0.51887,-3.85 -0.89764,-32.40135 -0.84173,-63.44744 0.0935,-51.92467 0.22882,-56.25329 1.68874,-54.02423 20.63495,31.50641 71.51652,62.62717 129.08707,78.95371 34.9281,9.90533 64.51187,15.14617 108.5,19.22106 18.64781,1.72746 84.3757,1.71159 103,-0.0249 52.6057,-4.90476 99.192,-15.39182 137,-30.84012 26.18694,-10.69996 56.14234,-28.44597 73.42686,-43.49912 7.26671,-6.32862 17.79508,-18.12892 21.78981,-24.42224 0.96182,-1.51527 1.17128,10.96485 1,59.58325 l -0.21667,61.5 -2.31644,5.73554 c -5.31438,13.1585 -17.68248,27.3118 -32.45827,37.14327 -4.64647,3.09166 -8.71358,5.62119 -9.03802,5.62119 -0.32445,0 -0.62207,-15.39455 -0.66139,-34.21011 -0.047,-22.47289 -0.46185,-35.51299 -1.20924,-38.00757 -1.47983,-4.93921 -6.9983,-11.32418 -11.98708,-13.86927 -5.86458,-2.99189 -14.53558,-2.78084 -21.27797,0.51791 -6.89911,3.37542 -13.88393,10.93849 -17.86661,19.34571 l -3.18498,6.72333 -0.2977,44.70835 -0.29771,44.70835 -15.20229,4.97434 c -12.42917,4.06694 -37.87649,11.10896 -40.1438,11.10896 -0.30718,0 -0.5585,-14.09332 -0.5585,-31.3185 0,-36.53788 -0.42467,-39.1588 -7.48973,-46.22387 -10.59914,-10.59913 -29.16214,-9.31213 -40.02981,2.77533 -7.21094,8.0203 -7.48046,9.81831 -7.48046,49.90323 v 34.77318 l -3.25,0.53627 c -5.56052,0.91752 -25.9677,2.54736 -31.94025,2.55094 l -5.69025,0.003 -0.30975,-34.25 -0.30975,-34.25 -3.42984,-6.32601 c -6.36998,-11.74883 -15.59654,-17.46161 -29.08683,-18.00961 -13.73948,-0.55812 -23.24153,3.70721 -30.48224,13.68301 -5.98632,8.24757 -6.50109,12.00621 -6.50109,47.46821 v 31.6844 l -6.75,-0.12867 c -3.7125,-0.0708 -12.6,-0.7088 -19.75,-1.41784 z"
         id="path76" /><path
         style="display:inline;fill:#fd900b;fill-opacity:1"
         d="M 487.86392,648.40932 C 383.47954,643.60366 297.36755,616.06582 252.7206,573.2126 c -20.81346,-19.97726 -29.77436,-39.51317 -28.53752,-62.21545 1.76145,-32.33168 24.87857,-57.54509 76.2753,-83.19209 13.86118,-6.91673 17.01154,-7.14176 20.47454,-1.46248 4.62339,7.58233 1.93621,12.72333 -10.27285,19.65354 -20.99626,11.91807 -34.11758,23.80238 -40.46918,36.65395 -3.73802,7.56338 -3.82697,8.00023 -3.82697,18.79522 0,10.74639 0.10397,11.26457 3.76143,18.74748 36.60001,74.88116 268.37749,105.84542 405.50993,54.73061 52.84288,-19.6967 83.22864,-46.34886 83.22864,-73.00207 0,-19.91405 -14.26346,-37.6543 -44.65623,-55.5414 -5.0844,-2.99233 -10.21061,-6.66501 -11.39159,-8.16151 -4.42898,-5.61231 -0.19321,-16.22092 6.47664,-16.22092 2.9097,0 25.04419,10.88165 37.39842,18.38565 29.19274,17.73173 45.89464,36.8403 51.63421,59.07445 3.41288,13.22093 1.21082,33.29135 -5.01338,45.69401 -8.59696,17.13074 -26.82222,35.22793 -49.90822,49.5575 -44.60935,27.68919 -103.10714,45.00842 -174.90137,51.78241 -15.2882,1.44248 -65.18817,2.62946 -80.63848,1.91815 z"
         id="path77" /><path
         id="path78"
         style="color:#000000;display:inline;opacity:1;fill:url(#radialGradient74);stroke-linejoin:round;-inkscape-stroke:none;paint-order:fill markers stroke"
         d="m 709.29297,421.99805 c -2.38926,0 -4.44175,1.3912 -5.91992,3.39648 3.62165,1.72137 12.89678,5.6471 18.42968,8.36719 7.30268,3.59011 15.85541,8.15535 21.77344,11.75 28.42582,17.26589 43.69607,35.13325 48.93945,55.44531 2.88944,11.19317 0.74834,30.91346 -4.5664,41.50391 -7.83199,15.60642 -25.34405,33.26838 -47.70899,47.15039 -21.7824,13.52042 -47.0722,24.56882 -75.80859,33.07617 -7.1841,2.12684 -14.58314,4.09421 -22.19726,5.90234 -22.84237,5.4244 -47.61545,9.41045 -74.29493,11.92774 -14.37902,1.3567 -65.24776,2.56833 -79.79883,1.89844 -6.46706,-0.29774 -12.86286,-0.68566 -19.17968,-1.16016 -6.6e-4,-5e-5 -10e-4,5e-5 -0.002,0 -94.76175,-7.1185 -171.96588,-33.86479 -212.08398,-72.37109 -20.02426,-19.21979 -27.8422,-36.61688 -26.70117,-57.56055 0.80777,-14.82675 6.28848,-27.64832 17.95703,-40.375 11.66854,-12.72667 29.68888,-25.14221 55.00586,-37.77539 l 13.18945,-10.70508 c -44.15044,10.83536 -93.67273,38.41985 -98.13476,88.20117 -1.33265,24.46077 8.77246,46.13646 30.375,66.8711 46.50099,44.63277 133.73696,72.01423 239.02148,76.86132 16.34946,0.75271 65.28123,-0.40924 81.47852,-1.9375 72.44273,-6.83517 131.84834,-24.32083 177.50195,-52.6582 23.80694,-14.77705 42.7436,-33.30795 52.10547,-51.96289 7.1336,-14.21481 9.39723,-34.63809 5.46094,-49.88672 -12.38299,-46.0592 -54.37883,-62.71776 -94.8418,-75.95898 z" /><path
         id="path82"
         style="color:#000000;display:inline;opacity:1;fill:url(#linearGradient82);stroke-linejoin:round;-inkscape-stroke:none;paint-order:fill markers stroke"
         d="m 709.29297,421.99805 c -2.38926,0 -4.44175,1.3912 -5.91992,3.39648 3.62165,1.72137 12.89678,5.6471 18.42968,8.36719 7.30268,3.59011 15.85541,8.15535 21.77344,11.75 28.42582,17.26589 43.69607,35.13325 48.93945,55.44531 2.88944,11.19317 0.74834,30.91346 -4.5664,41.50391 -7.83199,15.60642 -25.34405,33.26838 -47.70899,47.15039 -21.7824,13.52042 -47.0722,24.56882 -75.80859,33.07617 -7.1841,2.12684 -14.58314,4.09421 -22.19726,5.90234 -22.84237,5.4244 -47.61545,9.41045 -74.29493,11.92774 -14.37902,1.3567 -65.24776,2.56833 -79.79883,1.89844 -6.46706,-0.29774 -12.86286,-0.68566 -19.17968,-1.16016 -6.6e-4,-5e-5 -10e-4,5e-5 -0.002,0 -94.76175,-7.1185 -171.96588,-33.86479 -212.08398,-72.37109 -20.02426,-19.21979 -27.8422,-36.61688 -26.70117,-57.56055 0.80777,-14.82675 6.28848,-27.64832 17.95703,-40.375 11.66854,-12.72667 29.68888,-25.14221 55.00586,-37.77539 l 13.18945,-10.70508 c -44.15044,10.83536 -93.67273,38.41985 -98.13476,88.20117 -1.33265,24.46077 8.77246,46.13646 30.375,66.8711 46.50099,44.63277 133.73696,72.01423 239.02148,76.86132 16.34946,0.75271 65.28123,-0.40924 81.47852,-1.9375 72.44273,-6.83517 131.84834,-24.32083 177.50195,-52.6582 23.80694,-14.77705 42.7436,-33.30795 52.10547,-51.96289 7.1336,-14.21481 9.39723,-34.63809 5.46094,-49.88672 -12.38299,-46.0592 -54.37883,-62.71776 -94.8418,-75.95898 z" /><g
         id="g79"
         transform="matrix(0.98933302,0,0,0.98933302,5.4621818,5.7422268)"
         style="display:inline;opacity:0.691655"><path
           id="path79"
           style="color:#000000;display:inline;fill:url(#radialGradient80);stroke-linejoin:round;-inkscape-stroke:none;paint-order:fill markers stroke;filter:url(#filter78)"
           d="m 709.29297,421.99805 c -2.38926,0 -4.44175,1.3912 -5.91992,3.39648 3.62165,1.72137 12.89678,5.6471 18.42968,8.36719 7.30268,3.59011 15.85541,8.15535 21.77344,11.75 28.42582,17.26589 43.69607,35.13325 48.93945,55.44531 2.88944,11.19317 0.74834,30.91346 -4.5664,41.50391 -7.83199,15.60642 -25.34405,33.26838 -47.70899,47.15039 -21.7824,13.52042 -47.0722,24.56882 -75.80859,33.07617 -7.1841,2.12684 -14.58314,4.09421 -22.19726,5.90234 -22.84237,5.4244 -47.61545,9.41045 -74.29493,11.92774 -14.37902,1.3567 -65.24776,2.56833 -79.79883,1.89844 -6.46706,-0.29774 -12.86286,-0.68566 -19.17968,-1.16016 -6.6e-4,-5e-5 -10e-4,5e-5 -0.002,0 -94.76175,-7.1185 -171.96588,-33.86479 -212.08398,-72.37109 -20.02426,-19.21979 -27.8422,-36.61688 -26.70117,-57.56055 0.80777,-14.82675 6.28848,-27.64832 17.95703,-40.375 11.66854,-12.72667 29.68888,-25.14221 55.00586,-37.77539 l 13.18945,-10.70508 c -44.15044,10.83536 -93.67273,38.41985 -98.13476,88.20117 -1.33265,24.46077 8.77246,46.13646 30.375,66.8711 46.50099,44.63277 133.73696,72.01423 239.02148,76.86132 16.34946,0.75271 65.28123,-0.40924 81.47852,-1.9375 72.44273,-6.83517 131.84834,-24.32083 177.50195,-52.6582 23.80694,-14.77705 42.7436,-33.30795 52.10547,-51.96289 7.1336,-14.21481 9.39723,-34.63809 5.46094,-49.88672 -12.38299,-46.0592 -54.37883,-62.71776 -94.8418,-75.95898 z" /><path
           id="path80"
           style="color:#000000;display:inline;fill:url(#radialGradient81);stroke-linejoin:round;-inkscape-stroke:none;paint-order:fill markers stroke;filter:url(#filter80)"
           d="m 709.29297,421.99805 c -2.38926,0 -4.44175,1.3912 -5.91992,3.39648 3.62165,1.72137 12.89678,5.6471 18.42968,8.36719 7.30268,3.59011 15.85541,8.15535 21.77344,11.75 28.42582,17.26589 43.69607,35.13325 48.93945,55.44531 2.88944,11.19317 0.74834,30.91346 -4.5664,41.50391 -7.83199,15.60642 -25.34405,33.26838 -47.70899,47.15039 -21.7824,13.52042 -47.0722,24.56882 -75.80859,33.07617 -7.1841,2.12684 -14.58314,4.09421 -22.19726,5.90234 -22.84237,5.4244 -47.61545,9.41045 -74.29493,11.92774 -14.37902,1.3567 -65.24776,2.56833 -79.79883,1.89844 -6.46706,-0.29774 -12.86286,-0.68566 -19.17968,-1.16016 -6.6e-4,-5e-5 -10e-4,5e-5 -0.002,0 -94.76175,-7.1185 -171.96588,-33.86479 -212.08398,-72.37109 -20.02426,-19.21979 -27.8422,-36.61688 -26.70117,-57.56055 0.80777,-14.82675 6.28848,-27.64832 17.95703,-40.375 11.66854,-12.72667 29.68888,-25.14221 55.00586,-37.77539 l 13.18945,-10.70508 c -44.15044,10.83536 -93.67273,38.41985 -98.13476,88.20117 -1.33265,24.46077 8.77246,46.13646 30.375,66.8711 46.50099,44.63277 133.73696,72.01423 239.02148,76.86132 16.34946,0.75271 65.28123,-0.40924 81.47852,-1.9375 72.44273,-6.83517 131.84834,-24.32083 177.50195,-52.6582 23.80694,-14.77705 42.7436,-33.30795 52.10547,-51.96289 7.1336,-14.21481 9.39723,-34.63809 5.46094,-49.88672 -12.38299,-46.0592 -54.37883,-62.71776 -94.8418,-75.95898 z" /></g></g></g></svg>
