<svg class="h-12 text-[#8b5cf6]" viewBox="0 0 575.85834 567.30548" xml:space="preserve" xmlns:xlink="http://www.w3.org/1999/xlink" xmlns="http://www.w3.org/2000/svg" xmlns:svg="http://www.w3.org/2000/svg">
                            <g transform="translate(-224.07123,-228.69207)">
                                <path d="m 302.93728,228.80806 a 12.819,12.819 0 0 0 -6.12109,2.56446 12.819,12.819 0 0 0 -2.29492,17.98242 l 25.96484,33.56055 -18.35742,14.20117 c -5.52598,4.27506 -6.5329,12.16543 -2.25781,17.6914 l 106.05859,137.08985 c 4.2751,5.52596 12.16542,6.53293 17.69141,2.25781 l 18.35547,-14.20117 46.91015,60.63476 16.20508,-20.94922 -42.83789,-55.37304 19.92383,-15.41406 c 5.52602,-4.27513 6.5329,-12.16546 2.25781,-17.69141 L 378.37869,254.07174 c -4.27513,-5.52601 -12.16543,-6.53289 -17.69141,-2.25782 l -19.92578,15.41407 -25.96289,-33.5586 a 12.819,12.819 0 0 0 -11.86133,-4.86133 z m 421.37891,0 a 12.819,12.819 0 0 0 -11.86133,4.86133 l -25.96289,33.5586 -19.92578,-15.41407 c -5.52598,-4.2751 -13.41628,-3.2682 -17.69141,2.25782 L 542.81814,391.16158 c -4.27509,5.52598 -3.26821,13.41627 2.25782,17.69141 l 19.92382,15.41406 -112.71289,145.69336 a 12.819,12.819 0 0 0 2.29493,17.98242 12.819,12.819 0 0 0 17.98242,-2.29492 l 112.71289,-145.69336 18.35547,14.20117 c 5.52599,4.27513 13.4163,3.26819 17.6914,-2.25781 L 727.3826,314.80806 c 4.2751,-5.526 3.26819,-13.41631 -2.25782,-17.6914 l -18.35742,-14.20117 25.96485,-33.56055 a 12.819,12.819 0 0 0 -2.29493,-17.98242 12.819,12.819 0 0 0 -6.12109,-2.56446 z m -357.91406,41.32618 c 1.37667,-0.0897 2.76841,0.48809 3.67969,1.66601 l 95.11328,122.94141 c 1.45803,1.88466 1.11318,4.57515 -0.77149,6.0332 l -44.16406,34.16602 c -1.88466,1.45802 -4.57517,1.11513 -6.0332,-0.76954 l -95.11133,-122.9414 c -1.45804,-1.88467 -1.11513,-4.57517 0.76953,-6.0332 l 44.16406,-34.16797 c 0.70674,-0.54677 1.52752,-0.8407 2.35352,-0.89453 z m 294.45117,0.002 c 0.826,0.0538 1.64481,0.34581 2.35156,0.89258 l 44.16406,34.16797 c 1.88467,1.45802 2.22953,4.14853 0.77149,6.0332 l -95.11328,122.9414 c -1.45805,1.88467 -4.14854,2.22756 -6.03321,0.76954 l -44.16406,-34.16602 c -1.88466,-1.45805 -2.22758,-4.14854 -0.76953,-6.0332 L 657.17166,271.8003 c 0.91128,-1.17791 2.30497,-1.75376 3.68164,-1.66406 z m 48.43945,151.86133 c -6.66983,0 -10.90554,10.60841 -6.47656,16.2207 1.18098,1.4965 6.30623,5.16978 11.39063,8.16211 30.39269,17.88706 44.65625,35.627 44.65625,55.54101 0,26.65317 -30.38574,53.3053 -83.22852,73.00196 -137.13216,51.11471 -368.90982,20.15053 -405.50977,-54.73047 -3.65744,-7.48289 -3.76171,-8.00168 -3.76171,-18.74805 0,-10.79497 0.0901,-11.23156 3.82812,-18.79492 6.35158,-12.85155 19.47253,-24.73625 40.46875,-36.6543 12.20904,-6.93019 14.89681,-12.07003 10.27344,-19.65234 -3.463,-5.67926 -6.61347,-5.45579 -20.47461,1.46094 -51.39663,25.64694 -74.51394,50.86174 -76.27539,83.19336 -1.23684,22.70222 7.72369,42.23762 28.53711,62.21484 44.64685,42.85314 130.7584,70.39161 235.14258,75.19727 15.45027,0.71131 65.35049,-0.47549 80.63867,-1.91797 71.79409,-6.77399 130.29309,-24.09406 174.90234,-51.78321 23.08596,-14.32953 41.31126,-32.42592 49.9082,-49.55664 6.2242,-12.40262 8.42654,-32.47245 5.01368,-45.69336 -5.73957,-22.23409 -22.44209,-41.34448 -51.63477,-59.07617 -12.35421,-7.50398 -34.48874,-18.38476 -37.39844,-18.38476 z m -170.92578,100.65429 -16.20703,20.94922 32.5293,42.04688 a 12.819,12.819 0 0 0 17.98242,2.29492 12.819,12.819 0 0 0 2.29492,-17.98242 z m 260.38477,44.64649 c -0.0543,-0.02 -0.11176,0.0205 -0.17188,0.11523 -3.99471,6.29332 -14.52237,18.09326 -21.78906,24.42188 -17.28448,15.05311 -47.24085,32.80006 -73.42773,43.5 -37.80794,15.44826 -84.39442,25.9351 -137,30.83984 -18.62428,1.73649 -84.35223,1.75284 -103,0.0254 -43.98805,-4.07487 -73.57198,-9.31539 -108.5,-19.2207 -57.57045,-16.3265 -108.45103,-47.44873 -129.08594,-78.95508 -1.45992,-2.22906 -1.59596,2.10082 -1.68946,54.02539 -0.0559,31.04603 0.32293,59.59727 0.8418,63.44727 1.64405,12.19898 10.14955,25.88641 23.4336,37.71093 4.47918,3.98707 18.43336,13.78907 19.63085,13.78907 0.42615,0 0.90886,-16.08754 1.07227,-35.75 l 0.29688,-35.75 2.88671,-5.20899 c 4.27684,-7.71768 9.13306,-10.677 18.27539,-11.13867 6.37205,-0.32178 8.0932,-0.0178 12.72852,2.25 6.95408,3.40233 13.93217,10.94271 17.92578,19.37305 l 3.1836,6.72461 0.29882,44.70703 0.29688,44.70898 15.20312,4.97461 c 12.29337,4.02251 37.86935,11.10938 40.09375,11.10938 0.27966,0 0.64358,-14.96254 0.8086,-33.25 l 0.29883,-33.25 3.10546,-5.5 c 4.05428,-7.18431 9.24102,-10.81395 17.45704,-12.21094 5.33502,-0.90714 7.39111,-0.81624 12.00195,0.53125 9.98367,2.91767 18.29464,11.11032 20.94336,20.64453 0.55538,1.99914 0.98528,18.63043 0.98828,38.28516 0.003,19.11246 0.34141,34.78683 0.75391,34.83203 0.41248,0.0452 6.6,0.66204 13.75,1.37109 7.14998,0.70904 16.0375,1.34717 19.75,1.41797 l 6.75,0.12891 v -31.68555 c 0,-35.46192 0.51563,-39.2212 6.50195,-47.46875 7.24069,-9.97578 16.74296,-14.23976 30.48242,-13.68164 13.49027,0.548 22.71596,6.26097 29.08594,18.00976 l 3.42969,6.32618 0.31054,34.25 0.31055,34.25 5.68945,-0.004 c 5.97255,-0.004 26.37894,-1.63326 31.93946,-2.55078 l 3.25,-0.53711 v -34.77148 c 0,-40.08484 0.26954,-41.88402 7.48046,-49.9043 10.86765,-12.08744 29.43213,-13.37450 40.03125,-2.77539 7.06506,7.06505 7.48829,9.68679 7.48829,46.22461 0,17.22514 0.25141,31.31836 0.55859,31.31836 2.26731,0 27.71538,-7.04244 40.14453,-11.10938 l 15.20313,-4.97461 0.29687,-44.70898 0.29688,-44.70703 3.18554,-6.72461 c 3.98268,-8.4072 10.9681,-15.97029 17.86719,-19.34571 6.74237,-3.29873 15.41278,-3.50946 21.27734,-0.51757 4.98878,2.54507 10.50847,8.92993 11.98828,13.86914 0.74739,2.49456 1.16199,15.53496 1.20899,38.00781 0.0393,18.81552 0.33571,34.21094 0.66016,34.21094 0.32442,0 4.39259,-2.52944 9.03906,-5.6211 14.77575,-9.83145 27.14265,-23.98605 32.45703,-37.14453 l 2.31641,-5.73437 0.21679,-61.5 c 0.16058,-45.57967 -0.0132,-59.39861 -0.82812,-59.69922 z"></path>
                            </g>
                        </svg>